<svg id="Arrow-icon" xmlns="http://www.w3.org/2000/svg" width="24" height="24" viewBox="0 0 24 24">
  <rect id="Rectangle_3876" data-name="Rectangle 3876" width="24" height="24" fill="none"/>
  <g id="arrow" transform="translate(-2.336 -2.906)">
    <path id="Path_2465" data-name="Path 2465" d="M39.736,8.33,35.32,5.082a.95.95,0,0,0-1.5.764V6.914a6.606,6.606,0,0,0-5.41,3.378,7.456,7.456,0,0,1,2.881,2.291,6.881,6.881,0,0,1,.6.912,2.314,2.314,0,0,1,1.932-2.258v1.1a.949.949,0,0,0,1.5.76l4.42-3.244a.953.953,0,0,0,0-1.524Z" transform="translate(-15.454)"/>
    <path id="Path_2466" data-name="Path 2466" d="M13.327,17.673a6.424,6.424,0,0,0-3.014-.916V15.689a.951.951,0,0,0-1.505-.76l-4.42,3.244a.95.95,0,0,0,0,1.52l4.416,3.244a.949.949,0,0,0,1.505-.756v-1.1a2.24,2.24,0,0,1,1.253.645,2.265,2.265,0,0,1,.675,1.62v6.526A1.328,1.328,0,0,0,13.568,31.2h1.639a1.328,1.328,0,0,0,1.327-1.327V23.3a6.526,6.526,0,0,0-3.207-5.628Z" transform="translate(0 -6.292)"/>
  </g>
</svg>
