<svg id="Beach_resort-icon" data-name="Beach resort-icon" xmlns="http://www.w3.org/2000/svg" width="24" height="24" viewBox="0 0 24 24">
  <rect id="Rectangle_3972" data-name="Rectangle 3972" width="24" height="24" fill="none"/>
  <path id="beach-umbrella" d="M38.724,63.316q.1.026.189.056l-1.369,5.109h-.054l-.355,0,1.4-5.214Q38.629,63.291,38.724,63.316ZM41,64.463a.079.079,0,0,0,.142-.026,12.6,12.6,0,0,0,.388-4.11,7.91,7.91,0,0,0-1.085-3.434q-3.078,1.7-4.375,6.185a.079.079,0,0,0,.11.094A3.865,3.865,0,0,1,41,64.463Zm.924-4.17a13,13,0,0,1-.4,4.255.079.079,0,0,0,.111.09,3.866,3.866,0,0,1,4.637,1.034.079.079,0,0,0,.139-.038A8.074,8.074,0,0,0,40.8,56.713,8.3,8.3,0,0,1,41.925,60.293ZM31.012,61.583a3.866,3.866,0,0,1,4.533,1.424.079.079,0,0,0,.141-.023q1.336-4.633,4.546-6.423a8.074,8.074,0,0,0-9.321,4.92.079.079,0,0,0,.1.1Zm9.695-4.9.241-.9a.2.2,0,1,0-.382-.1l-.241.9v.006l.381.1Zm2.061,12.777a22.844,22.844,0,0,0-5.277-.581h-.052l-.3,1.128a.2.2,0,1,1-.382-.1l.274-1.022a22.479,22.479,0,0,0-4.815.577,9.28,9.28,0,0,0-3.626,1.576.2.2,0,0,0,.111.362H46.282a.2.2,0,0,0,.126-.348,9.235,9.235,0,0,0-3.641-1.589Z" transform="translate(-25.502 -51.535)"/>
</svg>
