<svg id="bicycle-icon" xmlns="http://www.w3.org/2000/svg" width="24" height="24" viewBox="0 0 24 24">
  <rect id="Rectangle_3970" data-name="Rectangle 3970" width="24" height="24" fill="none"/>
  <path id="bicycle" d="M16.276,101.419a3.719,3.719,0,0,0-.874.1l-1.481-3.555,1.285-.428a.586.586,0,1,0-.371-1.112l-1.923.643a.586.586,0,0,0-.316.766l.368.884L7.83,100.056,7.3,98.825h.815a.586.586,0,1,0,0-1.172H5.607a.586.586,0,1,0,0,1.172h.42l.78,1.82L5.672,101.97a3.723,3.723,0,1,0,1.73,3.759H9.372a.586.586,0,0,0,.473-.241l3.78-5.183.7,1.67a3.722,3.722,0,1,0,1.955-.556ZM3.724,107.7a2.552,2.552,0,1,1,1.171-4.819l-1.616,1.885a.586.586,0,0,0,.445.967H6.207A2.556,2.556,0,0,1,3.724,107.7ZM5,104.557l2.324-2.711,1.162,2.711Zm4.507-.591L8.3,101.145l4.029-1.048Zm6.771,3.729a2.551,2.551,0,0,1-1.5-4.618l.955,2.291a.586.586,0,1,0,1.082-.451l-.955-2.293a2.552,2.552,0,1,1,.414,5.07Z" transform="translate(2 -90.398)"/>
</svg>
