<svg id="Call-icon" xmlns="http://www.w3.org/2000/svg" width="24" height="24" viewBox="0 0 24 24">
  <rect id="Rectangle_3875" data-name="Rectangle 3875" width="24" height="24" fill="none"/>
  <path id="call" d="M10.143,13.652,8.478,15.316a.9.9,0,0,1-1.269.009c-.1-.1-.2-.189-.3-.288A25.565,25.565,0,0,1,4.4,12.1,16.041,16.041,0,0,1,2.639,9.027,7.725,7.725,0,0,1,2,6.085a4.655,4.655,0,0,1,.324-1.737,4.141,4.141,0,0,1,1.035-1.5A2.636,2.636,0,0,1,5.23,2a1.691,1.691,0,0,1,.729.162,1.467,1.467,0,0,1,.6.5L8.649,5.608a3.079,3.079,0,0,1,.36.63,1.422,1.422,0,0,1,.126.549,1.221,1.221,0,0,1-.189.639,3.06,3.06,0,0,1-.5.639l-.684.711a.482.482,0,0,0-.144.36.817.817,0,0,0,.027.207c.027.072.054.126.072.18a7.466,7.466,0,0,0,.837,1.152c.4.468.837.945,1.3,1.422.09.09.189.18.279.27A.9.9,0,0,1,10.143,13.652Zm9.825,3.041a2.285,2.285,0,0,1-.225.981,3.712,3.712,0,0,1-.612.918,4.056,4.056,0,0,1-1.476,1.062c-.009,0-.018.009-.027.009A4.545,4.545,0,0,1,15.9,20a7.5,7.5,0,0,1-2.933-.657,15.8,15.8,0,0,1-3.1-1.782c-.351-.261-.7-.522-1.035-.8l2.942-2.942a5.055,5.055,0,0,0,.666.432c.045.018.1.045.162.072a.621.621,0,0,0,.225.036A.5.5,0,0,0,13.2,14.2l.684-.675a2.761,2.761,0,0,1,.648-.5,1.2,1.2,0,0,1,.639-.189,1.436,1.436,0,0,1,.549.117,3.48,3.48,0,0,1,.63.351l2.978,2.114a1.365,1.365,0,0,1,.495.576A1.846,1.846,0,0,1,19.968,16.693Z" transform="translate(1.016 0.814)"/>
</svg>
