<svg id="Cinema-icon" xmlns="http://www.w3.org/2000/svg" width="24" height="24" viewBox="0 0 24 24">
  <rect id="Rectangle_3966" data-name="Rectangle 3966" width="24" height="24" fill="none"/>
  <path id="Film" d="M18,9a9,9,0,1,0-9,9h9V16.5H13.969A9,9,0,0,0,18,9Zm-4.592,6.068a2.25,2.25,0,1,1,.5-3.143A2.25,2.25,0,0,1,13.408,15.068ZM13.3,5.238a2.25,2.25,0,1,1-1.445,2.835A2.25,2.25,0,0,1,13.3,5.238ZM9,1.5A2.25,2.25,0,1,1,6.75,3.75,2.25,2.25,0,0,1,9,1.5ZM1.867,6.682A2.25,2.25,0,1,1,3.312,9.517,2.25,2.25,0,0,1,1.867,6.682ZM7.734,14.57a2.25,2.25,0,1,1-.5-3.142A2.25,2.25,0,0,1,7.734,14.57ZM8.25,9A.75.75,0,1,1,9,9.75.75.75,0,0,1,8.25,9Z" transform="translate(3 3)"/>
</svg>
