<svg id="cocktail-icon" xmlns="http://www.w3.org/2000/svg" width="24" height="24" viewBox="0 0 24 24">
  <rect id="Rectangle_3965" data-name="Rectangle 3965" width="24" height="24" fill="none"/>
  <path id="cocktail" d="M36.7,13.077v6.257h2.625a.333.333,0,0,1,0,.667H33.413a.333.333,0,0,1,0-.667h2.625V13.077l-3.85-4.741a.334.334,0,0,1,.128-.517,5.1,5.1,0,0,1,1.622-.4c1.5-.113,1.95.573,4.013.625a.167.167,0,0,1,.148.235l-.114.253a.333.333,0,0,0,.607.275c.559-1.237.06-.53,2.118-1.14a.166.166,0,0,1,.176.265ZM33.342,3.75H29.7a1,1,0,0,0-.776,1.63L31.221,8.2a.334.334,0,0,1-.15.526A4.208,4.208,0,1,1,33.656,3.3a.333.333,0,0,1-.314.447Zm-5.555,1a.333.333,0,0,0-.333-.333h-.417a.333.333,0,1,0,0,.667h.417A.333.333,0,0,0,27.788,4.75Zm2.25-2.667a.333.333,0,0,0-.667,0V2.5a.333.333,0,1,0,.667,0ZM40.734,0a1.874,1.874,0,0,0-1.176,3.415l-.452,1H29.7a.334.334,0,0,0-.259.543L31.32,7.268a.332.332,0,0,0,.4.09,5.854,5.854,0,0,1,2.163-.607c1.754-.132,2.255.676,4.406.626a.332.332,0,0,0,.294-.2l1.577-3.487A1.875,1.875,0,1,0,40.734,0Zm2.3,4.413H40.791a.334.334,0,0,0-.3.2L39.4,7.014a.167.167,0,0,0,.183.233,9.73,9.73,0,0,0,2.481-.818c.09-.044.014.031,1.232-1.469A.334.334,0,0,0,43.038,4.417Z" transform="translate(-22.496 2)"/>
</svg>
