<svg id="Coffee-icon" xmlns="http://www.w3.org/2000/svg" width="24" height="24" viewBox="0 0 24 24">
  <rect id="Rectangle_3878" data-name="Rectangle 3878" width="24" height="24" fill="none"/>
  <g id="hot-coffee-rounded-cup-on-a-plate-from-side-view" transform="translate(1.178 -3.92)">
    <g id="Group_2047" data-name="Group 2047" transform="translate(0 9.402)">
      <path id="Path_2471" data-name="Path 2471" d="M2.755,20.724s2.961-.008,2.947,0,7.746,0,7.746,0H16.4a.9.9,0,0,0,.9-.9H1.854A.9.9,0,0,0,2.755,20.724Z" transform="translate(-0.002 -7.694)"/>
      <path id="Path_2472" data-name="Path 2472" d="M20.845,11.8a3.037,3.037,0,0,0-2.506-.636c.02-.57.031-1.153.031-1.759H0C0,15.23.751,19.435,5.506,21h7.359a6.875,6.875,0,0,0,3.96-3.049c1.8-.041,4.707-.875,4.815-3.8A2.939,2.939,0,0,0,20.845,11.8Zm-3.264,4.487a15.466,15.466,0,0,0,.663-3.5A2.17,2.17,0,0,1,20,13.031c.078.075.321.307.293,1.057C20.233,15.6,18.631,16.112,17.582,16.283Z" transform="translate(0 -9.402)"/>
    </g>
  </g>
</svg>
