<svg id="Cooking-icon" xmlns="http://www.w3.org/2000/svg" width="24" height="24" viewBox="0 0 24 24">
  <rect id="Rectangle_3971" data-name="Rectangle 3971" width="24" height="24" fill="none"/>
  <g id="chef" transform="translate(3 3)">
    <path id="Path_2486" data-name="Path 2486" d="M77.128,384H64.465a.4.4,0,0,0-.422.374l0,1.091a1.434,1.434,0,0,0,.5,1.08,1.828,1.828,0,0,0,1.219.448H75.828a1.635,1.635,0,0,0,1.723-1.526v-1.092A.4.4,0,0,0,77.128,384Z" transform="translate(-61.795 -368.992)"/>
    <path id="Path_2487" data-name="Path 2487" d="M13.5,1.678a4.14,4.14,0,0,0-.78.078A4.823,4.823,0,0,0,9,0,4.977,4.977,0,0,0,4.091,5.033a.409.409,0,1,1-.818,0,5.912,5.912,0,0,1,.606-2.611.428.428,0,0,0-.047-.45.406.406,0,0,0-.418-.145A4.579,4.579,0,0,0,0,6.291,4.626,4.626,0,0,0,2.464,10.4l0,3.437a.427.427,0,0,0,.119.3.405.405,0,0,0,.29.123H15.136a.414.414,0,0,0,.409-.419V10.4A4.627,4.627,0,0,0,18,6.291,4.563,4.563,0,0,0,13.5,1.678Zm-7.513,9.97a.4.4,0,0,1-.576-.058,5.946,5.946,0,0,1-1.32-2.783.409.409,0,1,1,.818,0,5.131,5.131,0,0,0,1.135,2.25A.427.427,0,0,1,5.987,11.648Zm3.422-.324a.409.409,0,1,1-.818,0V8.807a.409.409,0,1,1,.818,0v2.516Zm3.18.266a.405.405,0,0,1-.316.153.4.4,0,0,1-.259-.1.427.427,0,0,1-.057-.59,5.149,5.149,0,0,0,1.135-2.251.409.409,0,1,1,.818,0A5.946,5.946,0,0,1,12.589,11.59Z"/>
  </g>
</svg>
