<svg id="Discover_B-icon" data-name="Discover B-icon" xmlns="http://www.w3.org/2000/svg" width="24" height="24" viewBox="0 0 24 24">
  <rect id="Rectangle_3845" data-name="Rectangle 3845" width="24" height="24" fill="none"/>
  <path id="Discover_B-icon-2" data-name="Discover B-icon" d="M20.98,3.02a3.43,3.43,0,0,0-3.29-.91L7.89,4.56A4.56,4.56,0,0,0,4.56,7.89L2.11,17.7A3.456,3.456,0,0,0,5.45,22a3.1,3.1,0,0,0,.85-.11l9.81-2.45a4.56,4.56,0,0,0,3.33-3.33L21.89,6.3A3.405,3.405,0,0,0,20.98,3.02ZM12,15.88A3.88,3.88,0,1,1,15.88,12,3.884,3.884,0,0,1,12,15.88Z" transform="translate(-0.004)"/>
</svg>
