<svg id="Dog-icon" xmlns="http://www.w3.org/2000/svg" width="24" height="24" viewBox="0 0 24 24">
  <rect id="Rectangle_3969" data-name="Rectangle 3969" width="24" height="24" fill="none"/>
  <g id="dog_1_" data-name="dog (1)" transform="translate(2 -29.417)">
    <g id="Group_2065" data-name="Group 2065" transform="translate(0 32.695)">
      <g id="Group_2064" data-name="Group 2064" transform="translate(0 0)">
        <path id="Path_2494" data-name="Path 2494" d="M19.17,37.131a12.13,12.13,0,0,0-2.134-2.626,3.327,3.327,0,0,0-2.956-1.018,2.035,2.035,0,0,0-.616.246A5.621,5.621,0,0,0,10,32.695a5.621,5.621,0,0,0-3.463,1.038,2.034,2.034,0,0,0-.616-.246,3.327,3.327,0,0,0-2.955,1.018A12.133,12.133,0,0,0,.83,37.131C-.032,38.582-.224,39.755.26,40.619a2.642,2.642,0,0,0,2.207,1.391,9.125,9.125,0,0,0-.287,2.347A5.658,5.658,0,0,0,3,47.473a5,5,0,0,0,2.058,1.776A11.535,11.535,0,0,0,10,50.141a11.535,11.535,0,0,0,4.938-.891A5,5,0,0,0,17,47.473a5.658,5.658,0,0,0,.824-3.116,9.126,9.126,0,0,0-.287-2.347,2.642,2.642,0,0,0,2.207-1.391C20.224,39.755,20.032,38.582,19.17,37.131ZM2.847,40.8a1.55,1.55,0,0,1-1.519-.783c-.244-.436-.042-1.262.555-2.266a10.954,10.954,0,0,1,1.894-2.335,2.306,2.306,0,0,1,1.789-.755,12.12,12.12,0,0,0-1.9,3.88c-.19.57-.372,1.056-.549,1.527C3.023,40.324,2.932,40.567,2.847,40.8ZM9.2,44.819a1.488,1.488,0,0,1-.482-.813c0-.147.025-.158.119-.2A3.719,3.719,0,0,1,10,43.683a3.719,3.719,0,0,1,1.162.125c.094.039.119.05.119.2a1.488,1.488,0,0,1-.482.813,1.5,1.5,0,0,1-.8.479A1.5,1.5,0,0,1,9.2,44.819Zm5.2,3.331a9.331,9.331,0,0,1-3.788.758V46.4a3.241,3.241,0,0,0,1.052-.715,2.643,2.643,0,0,0,.841-1.679,1.36,1.36,0,0,0-.868-1.325A4.21,4.21,0,0,0,10,42.459a4.21,4.21,0,0,0-1.637.221,1.36,1.36,0,0,0-.868,1.325,2.643,2.643,0,0,0,.841,1.679,3.24,3.24,0,0,0,1.052.715v2.508A9.329,9.329,0,0,1,5.6,48.15a3.831,3.831,0,0,1-2.2-3.792,9.744,9.744,0,0,1,.86-3.854c.172-.459.368-.979.565-1.571C5.91,35.681,7.055,33.919,10,33.919s4.089,1.762,5.171,5.013c.2.592.392,1.112.565,1.571a9.744,9.744,0,0,1,.86,3.854A3.831,3.831,0,0,1,14.4,48.15Zm4.271-8.128a1.55,1.55,0,0,1-1.519.783c-.086-.238-.176-.48-.271-.732-.177-.47-.359-.957-.549-1.527a12.12,12.12,0,0,0-1.9-3.88,2.306,2.306,0,0,1,1.789.755,10.95,10.95,0,0,1,1.894,2.334C18.714,38.76,18.916,39.586,18.672,40.022Z" transform="translate(0 -32.695)"/>
        <path id="Path_2495" data-name="Path 2495" d="M183.944,199.256a.666.666,0,1,0,.658.666A.662.662,0,0,0,183.944,199.256Z" transform="translate(-176.014 -192.628)"/>
        <path id="Path_2496" data-name="Path 2496" d="M287.925,199.093a.671.671,0,1,0,.662.671A.667.667,0,0,0,287.925,199.093Z" transform="translate(-275.861 -192.47)"/>
      </g>
    </g>
  </g>
</svg>
