<svg id="Dots-icon" xmlns="http://www.w3.org/2000/svg" width="24" height="24" viewBox="0 0 24 24">
  <rect id="Rectangle_3891" data-name="Rectangle 3891" width="24" height="24" fill="none"/>
  <g id="Group_39" data-name="Group 39" transform="translate(829 -1671) rotate(90)">
    <path id="XMLID_294_" d="M13,16a3,3,0,1,0,3-3A3,3,0,0,0,13,16Z" transform="translate(1667 801)"/>
    <path id="XMLID_295_" d="M13,26a3,3,0,1,0,3-3A3,3,0,0,0,13,26Z" transform="translate(1667 800)"/>
    <path id="XMLID_297_" d="M13,6a3,3,0,1,0,3-3A3,3,0,0,0,13,6Z" transform="translate(1667 802)"/>
  </g>
</svg>
