<svg id="Emoji_love-icon" data-name="Emoji love-icon" xmlns="http://www.w3.org/2000/svg" width="24" height="24" viewBox="0 0 24 24">
  <rect id="Rectangle_3851" data-name="Rectangle 3851" width="24" height="24" fill="none"/>
  <g id="in-love" transform="translate(2 2)">
    <circle id="Ellipse_3" data-name="Ellipse 3" cx="10" cy="10" r="10" fill="#ffd93b"/>
    <path id="Path_2475" data-name="Path 2475" d="M74.5,64.5A10,10,0,0,1,56.72,70.783,10,10,0,0,0,70.783,56.72,9.989,9.989,0,0,1,74.5,64.5Z" transform="translate(-54.504 -54.504)" fill="#f4c534"/>
    <path id="Path_2476" data-name="Path 2476" d="M89.453,164.811c0,1.921-2.9,3.679-2.9,3.679s-2.9-1.757-2.9-3.679a1.485,1.485,0,0,1,2.9-.435,1.483,1.483,0,0,1,2.9.435Z" transform="translate(-80.38 -156.948)" fill="#e24b4b"/>
    <path id="Path_2477" data-name="Path 2477" d="M84.151,173.312a1.472,1.472,0,0,0-.487,1.094c0,1.921,2.9,3.679,2.9,3.679C83.527,175.518,84.129,173.386,84.151,173.312Z" transform="translate(-80.396 -166.542)" fill="#d03f3f"/>
    <path id="Path_2478" data-name="Path 2478" d="M198.6,181.3c-.141.114-.381.038-.539-.163s-.18-.446-.049-.55.381-.028.544.174S198.734,181.2,198.6,181.3Z" transform="translate(-190.192 -173.483)" fill="#fff"/>
    <path id="Path_2479" data-name="Path 2479" d="M285.549,164.811c0,1.921-2.9,3.679-2.9,3.679s-2.9-1.757-2.9-3.679a1.485,1.485,0,0,1,2.9-.435,1.483,1.483,0,0,1,2.9.435Z" transform="translate(-268.816 -156.948)" fill="#e24b4b"/>
    <path id="Path_2480" data-name="Path 2480" d="M280.247,173.312a1.472,1.472,0,0,0-.487,1.094c0,1.921,2.9,3.679,2.9,3.679C279.623,175.518,280.225,173.386,280.247,173.312Z" transform="translate(-268.832 -166.542)" fill="#d03f3f"/>
    <path id="Path_2481" data-name="Path 2481" d="M394.694,181.3c-.141.114-.381.038-.539-.163s-.18-.446-.049-.55.381-.028.544.174S394.83,181.2,394.694,181.3Z" transform="translate(-378.628 -173.483)" fill="#fff"/>
    <path id="Path_2482" data-name="Path 2482" d="M135.987,346.337a6.058,6.058,0,0,1-9.825.006.686.686,0,0,1,.644-1.119,24.52,24.52,0,0,0,8.544-.006A.684.684,0,0,1,135.987,346.337Z" transform="translate(-121.076 -331.723)" fill="#3e4347"/>
    <path id="Path_2483" data-name="Path 2483" d="M192.056,384.76a5.762,5.762,0,0,0,2.8-.764,1.718,1.718,0,0,0-2.447-1.237c-1.158.618-2.454-.182-2.954,1.34A5.693,5.693,0,0,0,192.056,384.76Z" transform="translate(-182.055 -367.63)" fill="#e24b4b"/>
  </g>
</svg>
