<svg id="full-moon-icon" xmlns="http://www.w3.org/2000/svg" width="24" height="24" viewBox="0 0 24 24">
  <rect id="Rectangle_3890" data-name="Rectangle 3890" width="24" height="24" fill="none"/>
  <g id="full-moon" transform="translate(2 2)">
    <g id="Group_36" data-name="Group 36" transform="translate(0.586 0.586)">
      <ellipse id="Ellipse_2" data-name="Ellipse 2" cx="0.662" cy="0.442" rx="0.662" ry="0.442" transform="translate(13.543 11.335)"/>
      <path id="Path_2472" data-name="Path 2472" d="M20.781,24.219a1.953,1.953,0,1,0,1.953,1.953A1.955,1.955,0,0,0,20.781,24.219Zm3.633-5.82a.879.879,0,1,0,.879.879A.88.88,0,0,0,24.414,18.4Zm0-3.4a9.414,9.414,0,1,0,9.414,9.414A9.414,9.414,0,0,0,24.414,15Zm4.609,5.977a.586.586,0,1,1-.586.586A.586.586,0,0,1,29.023,20.977Zm-8.906-1.016a.586.586,0,1,1-.586.586A.586.586,0,0,1,20.117,19.961Zm.664,9.336a3.125,3.125,0,1,1,3.125-3.125A3.129,3.129,0,0,1,20.781,29.3Zm3.633,1.563A.586.586,0,1,1,25,30.273.586.586,0,0,1,24.414,30.859Zm0-9.531a2.051,2.051,0,1,1,2.051-2.051A2.053,2.053,0,0,1,24.414,21.328Zm2.07,2.734a.586.586,0,1,1,.586-.586A.586.586,0,0,1,26.484,24.062ZM29.3,28.516a1.758,1.758,0,1,1,1.758-1.758A1.76,1.76,0,0,1,29.3,28.516Z" transform="translate(-15 -15)"/>
    </g>
    <path id="Path_2473" data-name="Path 2473" d="M435.5.957h-.371V.586a.586.586,0,0,0-1.172,0V.957h-.371a.586.586,0,0,0,0,1.172h.371V2.5a.586.586,0,0,0,1.172,0V2.129h.371a.586.586,0,1,0,0-1.172Z" transform="translate(-416.086)"/>
    <path id="Path_2474" data-name="Path 2474" d="M2.5,433.957H2.129v-.371a.586.586,0,0,0-1.172,0v.371H.586a.586.586,0,0,0,0,1.172H.957v.371a.586.586,0,1,0,1.172,0v-.371H2.5a.586.586,0,0,0,0-1.172Z" transform="translate(0 -416.086)"/>
  </g>
</svg>
