<svg id="heart_B-icon" data-name="heart B-icon" xmlns="http://www.w3.org/2000/svg" width="24" height="24" viewBox="0 0 24 24">
  <rect id="Rectangle_3863" data-name="Rectangle 3863" width="24" height="24" fill="none"/>
  <path id="heart_B" data-name="heart B" d="M16.44,3.1A5.549,5.549,0,0,0,12,5.332,5.552,5.552,0,0,0,2,8.692,10.678,10.678,0,0,0,2.52,12c1.58,5,6.45,7.99,8.86,8.81a2.181,2.181,0,0,0,1.24,0c2.41-.82,7.28-3.81,8.86-8.81A10.678,10.678,0,0,0,22,8.692,5.574,5.574,0,0,0,16.44,3.1Z" transform="translate(0 -0.004)"/>
</svg>
