<svg id="Home_B-icon" data-name="Home B-icon" xmlns="http://www.w3.org/2000/svg" width="24" height="24" viewBox="0 0 24 24">
  <rect id="Rectangle_3843" data-name="Rectangle 3843" width="24" height="24" fill="none"/>
  <path id="Home_B-icon-2" data-name="Home B-icon" d="M20.04,6.822l-5.76-4.03a4.853,4.853,0,0,0-5.49.13L3.78,6.832a5.153,5.153,0,0,0-1.79,3.64v6.9A4.631,4.631,0,0,0,6.61,22H17.39a4.622,4.622,0,0,0,4.62-4.62V10.6A5.1,5.1,0,0,0,20.04,6.822ZM12.75,18a.75.75,0,0,1-1.5,0V15a.75.75,0,0,1,1.5,0Z" transform="translate(0.01 -0.004)"/>
</svg>
