<svg id="List-icon" xmlns="http://www.w3.org/2000/svg" width="24" height="24" viewBox="0 0 24 24">
  <rect id="Rectangle_3961" data-name="Rectangle 3961" width="24" height="24" fill="none"/>
  <path id="Path_2475" data-name="Path 2475" d="M4.25,4H2.75A.75.75,0,0,0,2,4.75v1.5A.75.75,0,0,0,2.75,7h1.5A.75.75,0,0,0,5,6.25V4.75A.75.75,0,0,0,4.25,4Z"/>
  <path id="Path_2476" data-name="Path 2476" d="M4.25,10H2.75a.75.75,0,0,0-.75.75v1.5a.75.75,0,0,0,.75.75h1.5A.75.75,0,0,0,5,12.25v-1.5A.75.75,0,0,0,4.25,10Z"/>
  <path id="Path_2477" data-name="Path 2477" d="M4.25,16H2.75a.75.75,0,0,0-.75.75v1.5a.75.75,0,0,0,.75.75h1.5A.75.75,0,0,0,5,18.25v-1.5A.75.75,0,0,0,4.25,16Z"/>
  <path id="Path_2478" data-name="Path 2478" d="M20.929,4H8.071C7.48,4,7,4.336,7,4.75v1.5c0,.414.48.75,1.071.75H20.929C21.52,7,22,6.664,22,6.25V4.75C22,4.336,21.52,4,20.929,4Z"/>
  <path id="Path_2479" data-name="Path 2479" d="M20.929,10H8.071C7.48,10,7,10.336,7,10.75v1.5c0,.414.48.75,1.071.75H20.929C21.52,13,22,12.664,22,12.25v-1.5C22,10.336,21.52,10,20.929,10Z"/>
  <path id="Path_2480" data-name="Path 2480" d="M20.929,16H8.071C7.48,16,7,16.336,7,16.75v1.5c0,.414.48.75,1.071.75H20.929C21.52,19,22,18.664,22,18.25v-1.5C22,16.336,21.52,16,20.929,16Z"/>
</svg>
