<svg id="Location-icon" xmlns="http://www.w3.org/2000/svg" width="24" height="24" viewBox="0 0 24 24">
  <rect id="Rectangle_12" data-name="Rectangle 12" width="24" height="24" fill="none"/>
  <path id="Location-icon-2" data-name="Location-icon" d="M12,12a2.006,2.006,0,0,0,2-2,2,2,0,0,0-3.413-1.412,1.992,1.992,0,0,0,0,2.825A1.922,1.922,0,0,0,12,12Zm0,9.625a1.132,1.132,0,0,1-.4-.075,1.2,1.2,0,0,1-.35-.2A30.843,30.843,0,0,1,5.8,15.362,9.59,9.59,0,0,1,4,10.2,7.733,7.733,0,0,1,6.413,4.225a8.128,8.128,0,0,1,11.175,0A7.73,7.73,0,0,1,20,10.2a9.591,9.591,0,0,1-1.8,5.163,30.822,30.822,0,0,1-5.45,5.987,1.2,1.2,0,0,1-.35.2A1.132,1.132,0,0,1,12,21.625Z" transform="translate(0 1)"/>
</svg>
