<svg id="Location-icon" xmlns="http://www.w3.org/2000/svg" width="24" height="24" viewBox="0 0 24 24">
  <rect id="Rectangle_12" data-name="Rectangle 12" width="24" height="24" fill="none"/>
  <path id="Location-icon-2" data-name="Location-icon" d="M12,22.375a1.884,1.884,0,0,1-.663-.123,1.953,1.953,0,0,1-.567-.326l-.017-.014a31.717,31.717,0,0,1-5.582-6.141A10.357,10.357,0,0,1,3.25,10.2,8.486,8.486,0,0,1,5.9,3.674a8.878,8.878,0,0,1,12.192,0A8.483,8.483,0,0,1,20.75,10.2a10.358,10.358,0,0,1-1.922,5.572,31.7,31.7,0,0,1-5.582,6.14l-.016.014a1.953,1.953,0,0,1-.567.326A1.884,1.884,0,0,1,12,22.375Zm-.264-1.6a.47.47,0,0,0,.127.069.353.353,0,0,0,.273,0,.47.47,0,0,0,.127-.069,30.217,30.217,0,0,0,5.308-5.825A8.914,8.914,0,0,0,19.25,10.2a6.954,6.954,0,0,0-2.17-5.424A7.206,7.206,0,0,0,12,2.75,7.2,7.2,0,0,0,6.921,4.776,6.957,6.957,0,0,0,4.75,10.2a8.913,8.913,0,0,0,1.678,4.753A30.237,30.237,0,0,0,11.736,20.779ZM12,12.75A2.756,2.756,0,0,1,9.25,10,2.756,2.756,0,0,1,12,7.25h0A2.756,2.756,0,0,1,14.75,10,2.756,2.756,0,0,1,12,12.75Z" transform="translate(0 1)"/>
</svg>
