<svg id="Message_B-icon" data-name="Message B-icon" xmlns="http://www.w3.org/2000/svg" width="24" height="24" viewBox="0 0 24 24">
  <rect id="Rectangle_3848" data-name="Rectangle 3848" width="24" height="24" fill="none"/>
  <g id="Message_B-icon-2" data-name="Message B-icon" transform="translate(0 0.004)">
    <path id="Path_2447" data-name="Path 2447" d="M17,2.43H7a4.724,4.724,0,0,0-5,5v6a4.724,4.724,0,0,0,5,5v2.13a.994.994,0,0,0,1.55.83L13,18.43h4a4.724,4.724,0,0,0,5-5v-6A4.724,4.724,0,0,0,17,2.43Z" fill="none" stroke="#000" stroke-width="1.5"/>
    <path id="Path_2448" data-name="Path 2448" d="M6,8A1,1,0,0,1,7,7h6a1,1,0,0,1,0,2H7A1,1,0,0,1,6,8Z"/>
    <path id="Path_2449" data-name="Path 2449" d="M6,12a1,1,0,0,1,1-1H17a1,1,0,0,1,0,2H7A1,1,0,0,1,6,12Z"/>
  </g>
</svg>
