<svg id="Notificationbing_2-icon" data-name="Notificationbing 2-icon" xmlns="http://www.w3.org/2000/svg" width="24" height="24" viewBox="0 0 24 24">
  <rect id="Rectangle_11" data-name="Rectangle 11" width="24" height="24" fill="none"/>
  <path id="Path_9" data-name="Path 9" d="M12.02,2A6.658,6.658,0,0,0,5.36,8.66v2.1a5.192,5.192,0,0,1-.63,2.28L3.46,15.16a2.132,2.132,0,0,0,1.2,3.25,23.34,23.34,0,0,0,14.73,0,2.22,2.22,0,0,0,1.2-3.25l-1.27-2.12a5.23,5.23,0,0,1-.63-2.28V8.66A6.7,6.7,0,0,0,12.02,2Z" transform="translate(-0.104 1)" fill="none" stroke="#000" stroke-linecap="round" stroke-miterlimit="10" stroke-width="1.5"/>
  <path id="Path_10" data-name="Path 10" d="M15.33,18.82a3.33,3.33,0,0,1-6.66,0" transform="translate(-0.104 1)" fill="none" stroke="#000" stroke-miterlimit="10" stroke-width="1.5"/>
  <circle id="Ellipse_12" data-name="Ellipse 12" cx="3" cy="3" r="3" transform="translate(14.896 3)" fill="#ff3b30"/>
</svg>
