<svg id="Profile_B-icon" data-name="Profile B-icon" xmlns="http://www.w3.org/2000/svg" width="24" height="24" viewBox="0 0 24 24">
  <rect id="Rectangle_3849" data-name="Rectangle 3849" width="24" height="24" fill="none"/>
  <g id="Profile_B-icon-2" data-name="Profile B-icon" transform="translate(0 0.238)">
    <path id="Path_2451" data-name="Path 2451" d="M22,12A10,10,0,1,0,5.23,19.34c0,.01,0,.01-.01.02.1.1.22.18.32.27a2.1,2.1,0,0,0,.17.14c.18.15.38.29.57.43l.2.14a5.953,5.953,0,0,0,.6.36c.07.04.15.09.22.13a6.093,6.093,0,0,0,.63.3,2.557,2.557,0,0,0,.24.11q.33.135.66.24a2.25,2.25,0,0,0,.24.08c.24.07.48.13.72.19a1.419,1.419,0,0,0,.22.05,7.913,7.913,0,0,0,.85.13.5.5,0,0,1,.12.02c.34.03.68.05,1.02.05s.68-.02,1.01-.05a.5.5,0,0,0,.12-.02,7.913,7.913,0,0,0,.85-.13c.07-.01.14-.04.22-.05.24-.06.49-.11.72-.19a2.251,2.251,0,0,1,.24-.08c.22-.08.45-.15.66-.24a2.557,2.557,0,0,0,.24-.11q.315-.135.63-.3c.08-.04.15-.09.22-.13.2-.12.4-.23.6-.36a2.426,2.426,0,0,0,.2-.14c.2-.14.39-.28.57-.43a2.094,2.094,0,0,1,.17-.14c.11-.09.22-.18.32-.27,0-.01,0-.01-.01-.02A9.946,9.946,0,0,0,22,12Zm-5.06,4.97a9.622,9.622,0,0,0-9.88,0,4.829,4.829,0,0,0-1.1,1,8.5,8.5,0,1,1,12.08,0A4.628,4.628,0,0,0,16.94,16.97Z"/>
    <path id="Path_2452" data-name="Path 2452" d="M12,6.93a3.745,3.745,0,0,0-.05,7.49h.18A3.746,3.746,0,0,0,12,6.93Z"/>
  </g>
</svg>
