<svg id="Profile_L-icon" data-name="Profile L-icon" xmlns="http://www.w3.org/2000/svg" width="24" height="24" viewBox="0 0 24 24">
  <rect id="Rectangle_3850" data-name="Rectangle 3850" width="24" height="24" fill="none"/>
  <g id="Profile_L-icon-2" data-name="Profile L-icon" transform="translate(0 0.238)">
    <path id="Path_2453" data-name="Path 2453" d="M12.12,13.53h-.17a3.959,3.959,0,1,1,.2,0ZM12,6.97a2.531,2.531,0,0,0-.1,5.06.836.836,0,0,1,.23,0A2.532,2.532,0,0,0,12,6.97Zm0,15.78a10.71,10.71,0,0,1-7.25-2.82.755.755,0,0,1-.24-.63,4.408,4.408,0,0,1,2.1-3.12,10.524,10.524,0,0,1,10.78,0,4.428,4.428,0,0,1,2.1,3.12.716.716,0,0,1-.24.63A10.71,10.71,0,0,1,12,22.75ZM6.08,19.1a9.225,9.225,0,0,0,11.84,0,3.251,3.251,0,0,0-1.37-1.68,9.049,9.049,0,0,0-9.11,0A3.227,3.227,0,0,0,6.08,19.1Z"/>
    <path id="Path_2454" data-name="Path 2454" d="M12,22.75A10.75,10.75,0,1,1,22.75,12,10.759,10.759,0,0,1,12,22.75Zm0-20A9.25,9.25,0,1,0,21.25,12,9.261,9.261,0,0,0,12,2.75Z"/>
  </g>
</svg>
