<svg id="restaurant-icon" xmlns="http://www.w3.org/2000/svg" width="24" height="24" viewBox="0 0 24 24">
  <rect id="Rectangle_3866" data-name="Rectangle 3866" width="24" height="24" fill="none"/>
  <g id="restaurant" transform="translate(-78.996 1)">
    <path id="Path_2455" data-name="Path 2455" d="M130.176,283.153a1.371,1.371,0,0,0-1.371,1.371v7.384a1.371,1.371,0,1,0,2.741,0v-7.384A1.371,1.371,0,0,0,130.176,283.153Z" transform="translate(-43.722 -271.278)"/>
    <path id="Path_2456" data-name="Path 2456" d="M89.182,0a.663.663,0,0,0-.663.663V3.385a.7.7,0,0,1-1.4.008c0-.012,0-.024,0-.036V.774a.663.663,0,0,0-1.325,0V3.356a.7.7,0,0,1-1.4.026V.712a.663.663,0,1,0-1.325,0V5.721a3.4,3.4,0,0,0,2.729,3.326v2.22a2.7,2.7,0,0,1,1.325,0V9.047a3.4,3.4,0,0,0,2.729-3.326V.663A.663.663,0,0,0,89.182,0Z"/>
    <path id="Path_2457" data-name="Path 2457" d="M275.184,1.992a3.047,3.047,0,0,0-5.132,0,5.28,5.28,0,0,0-.973,3.136,5.28,5.28,0,0,0,.973,3.136,3.359,3.359,0,0,0,1.9,1.325V11.83a2.7,2.7,0,0,1,1.325,0V9.589a3.358,3.358,0,0,0,1.9-1.325,5.28,5.28,0,0,0,.973-3.136A5.28,5.28,0,0,0,275.184,1.992Z" transform="translate(-177.229 -0.563)"/>
    <path id="Path_2458" data-name="Path 2458" d="M319.522,283.153a1.371,1.371,0,0,0-1.371,1.371v7.384a1.371,1.371,0,0,0,2.741,0v-7.384A1.371,1.371,0,0,0,319.522,283.153Z" transform="translate(-224.132 -271.278)"/>
  </g>
</svg>
