<svg id="share-icon" xmlns="http://www.w3.org/2000/svg" width="24" height="24" viewBox="0 0 24 24">
  <rect id="Rectangle_3994" data-name="Rectangle 3994" width="24" height="24" fill="none"/>
  <path id="share" d="M19.318,46.8,14.79,42.268a1.629,1.629,0,0,0-1.126-.563c-.513,0-1.112.39-1.112,1.49v1.541A13.139,13.139,0,0,0,0,57.861a.586.586,0,0,0,1.054.352,14.982,14.982,0,0,1,11.5-6.03V53.7c0,1.1.6,1.49,1.112,1.49h0a1.629,1.629,0,0,0,1.126-.563L19.318,50.1a2.342,2.342,0,0,0,0-3.3Z" transform="translate(2 -38.076)"/>
</svg>
