<svg id="Store-icon" xmlns="http://www.w3.org/2000/svg" width="24" height="24" viewBox="0 0 24 24">
  <rect id="Rectangle_3874" data-name="Rectangle 3874" width="24" height="24" fill="none"/>
  <g id="Store" transform="translate(0.76 0.563)">
    <path id="Path_2462" data-name="Path 2462" d="M21.026,6.733l-1.46-4.368A1.628,1.628,0,0,0,18.022,1.25H4.478A1.628,1.628,0,0,0,2.934,2.365L1.473,6.733A4.42,4.42,0,0,0,1.25,8.127v.66a3.114,3.114,0,0,0,2.716,3.132A3.025,3.025,0,0,0,6.3,11.157a2.706,2.706,0,0,0,.3-.288,3,3,0,0,0,2.326,1.069,3.043,3.043,0,0,0,2.326-1.069,3,3,0,0,0,2.344,1.069A3.052,3.052,0,0,0,15.9,10.85a3.077,3.077,0,0,0,.3.307,3.016,3.016,0,0,0,2.335.762,3.114,3.114,0,0,0,2.716-3.132v-.66a4.42,4.42,0,0,0-.223-1.394Z"/>
    <path id="Path_2463" data-name="Path 2463" d="M14.129,17.75H9.482a.232.232,0,0,0-.232.232V22.4h5.111V17.982A.232.232,0,0,0,14.129,17.75Z" transform="translate(-0.556 -1.147)"/>
    <path id="Path_2464" data-name="Path 2464" d="M18.764,14.181h-.437a4.45,4.45,0,0,1-2.354-.641,4.394,4.394,0,0,1-2.326.66,4.516,4.516,0,0,1-2.344-.651A4.46,4.46,0,0,1,9,14.2a4.515,4.515,0,0,1-2.326-.651,4.376,4.376,0,0,1-2.316.651H3.917a4.171,4.171,0,0,1-1.647-.52v6.793A1.636,1.636,0,0,0,3.879,22.1H7.368V17.452a1.4,1.4,0,0,1,1.4-1.394H13.88a1.4,1.4,0,0,1,1.4,1.394V22.1h3.489a1.636,1.636,0,0,0,1.628-1.626V13.661a4.171,4.171,0,0,1-1.628.52Z" transform="translate(-0.072 -0.85)"/>
  </g>
</svg>
